<svg width="14" height="14" viewBox="0 0 14 14" fill="none" xmlns="http://www.w3.org/2000/svg">
<path d="M12.0747 2.05352C11.7815 1.71952 11.4333 1.45457 11.0502 1.27381C10.667 1.09304 10.2563 1 9.84153 1C9.42676 1 9.01606 1.09304 8.63289 1.27381C8.24972 1.45457 7.90158 1.71952 7.60837 2.05352L6.99985 2.74636L6.39132 2.05352C5.79905 1.37919 4.99576 1.00035 4.15816 1.00035C3.32057 1.00035 2.51728 1.37919 1.92501 2.05352C1.33273 2.72785 1 3.64245 1 4.5961C1 5.54975 1.33273 6.46434 1.92501 7.13868L2.53353 7.83151L6.99985 12.9167L11.4662 7.83151L12.0747 7.13868C12.368 6.80484 12.6007 6.40846 12.7595 5.9722C12.9183 5.53593 13 5.06833 13 4.5961C13 4.12387 12.9183 3.65626 12.7595 3.22C12.6007 2.78373 12.368 2.38736 12.0747 2.05352V2.05352Z" stroke="#BFC2C8" stroke-width="1.46667" stroke-linecap="round" stroke-linejoin="round"/>
</svg>
